<svg viewBox="0 0 1400 900" xmlns="http://www.w3.org/2000/svg">
    <defs>
        <style>
      .layer-box { fill: #2d3748; }
      .service-box { fill: #1a202c; }
      .client-box { fill: #2b6cb0; }
      .gateway-box { fill: #2d3e50; }
      .core-box { fill: #16a085; }
      .data-box { fill: #8b4513; }
      .external-box { fill: #7b68ee; }
      .shared-box { fill: #708090; }
      .text { fill: white; font-family: Arial, sans-serif; }
      .title { font-size: 18px; font-weight: bold; }
      .service-text { font-size: 14px; }
      .port-text { font-size: 12px; fill: #cbd5e0; }
      .layer-label { font-size: 14px; fill: #a0aec0; font-style: italic; }
        </style>
    </defs>

    <!-- Background -->
    <rect width="1400" height="900" fill="#0f1419"/>

    <!-- Client Layer -->
    <g id="client-layer">
        <rect x="50" y="20" width="1300" height="100" class="layer-box" rx="5"/>
        <text x="700" y="45" class="text title" text-anchor="middle">Client Layer</text>

        <rect x="400" y="55" width="200" height="50" class="client-box" rx="3"/>
        <text x="500" y="75" class="text service-text" text-anchor="middle">fechatter_frontend</text>
        <text x="500" y="90" class="text port-text" text-anchor="middle">Vue 3 + TypeScript :3000</text>

        <rect x="800" y="55" width="200" height="50" class="client-box" rx="3"/>
        <text x="900" y="75" class="text service-text" text-anchor="middle">Client Applications</text>
        <text x="900" y="90" class="text port-text" text-anchor="middle">(Web/Mobile/API)</text>
    </g>

    <!-- Gateway Layer -->
    <g id="gateway-layer">
        <rect x="50" y="140" width="1300" height="80" class="layer-box" rx="5"/>
        <text x="700" y="165" class="text title" text-anchor="middle">Gateway Layer</text>

        <rect x="550" y="165" width="300" height="45" class="gateway-box" rx="3"/>
        <text x="700" y="183" class="text service-text" text-anchor="middle">fechatter_gateway</text>
        <text x="700" y="198" class="text port-text" text-anchor="middle">Pingora Proxy :8080</text>
    </g>

    <!-- Core Services Layer -->
    <g id="core-services">
        <rect x="50" y="240" width="1300" height="120" class="layer-box" rx="5"/>
        <text x="700" y="265" class="text title" text-anchor="middle">Core Services</text>

        <!-- Services evenly distributed -->
        <rect x="150" y="275" width="200" height="65" class="core-box" rx="3"/>
        <text x="250" y="298" class="text service-text" text-anchor="middle">fechatter_server</text>
        <text x="250" y="318" class="text port-text" text-anchor="middle">Axum + SQLx</text>
        <text x="250" y="333" class="text port-text" text-anchor="middle">:6688</text>

        <rect x="450" y="275" width="200" height="65" class="core-box" rx="3"/>
        <text x="550" y="298" class="text service-text" text-anchor="middle">notify_server</text>
        <text x="550" y="318" class="text port-text" text-anchor="middle">Tokio + SSE</text>
        <text x="550" y="333" class="text port-text" text-anchor="middle">:6687</text>

        <rect x="750" y="275" width="200" height="65" class="core-box" rx="3"/>
        <text x="850" y="298" class="text service-text" text-anchor="middle">bot_server</text>
        <text x="850" y="318" class="text port-text" text-anchor="middle">OpenAI SDK</text>
        <text x="850" y="333" class="text port-text" text-anchor="middle">:6686</text>

        <rect x="1050" y="275" width="200" height="65" class="core-box" rx="3"/>
        <text x="1150" y="298" class="text service-text" text-anchor="middle">analytics_server</text>
        <text x="1150" y="318" class="text port-text" text-anchor="middle">ClickHouse Client</text>
        <text x="1150" y="333" class="text port-text" text-anchor="middle">:6690</text>
    </g>

    <!-- Data Layer -->
    <g id="data-layer">
        <rect x="50" y="380" width="1300" height="180" class="layer-box" rx="5"/>
        <text x="700" y="405" class="text title" text-anchor="middle">Data Layer</text>

        <!-- First row of data stores -->
        <rect x="100" y="430" width="180" height="55" class="data-box" rx="3"/>
        <text x="190" y="453" class="text service-text" text-anchor="middle">PostgreSQL</text>
        <text x="190" y="473" class="text port-text" text-anchor="middle">Primary Database</text>

        <rect x="320" y="430" width="180" height="55" class="data-box" rx="3"/>
        <text x="410" y="453" class="text service-text" text-anchor="middle">Redis</text>
        <text x="410" y="473" class="text port-text" text-anchor="middle">Cache & Sessions</text>

        <rect x="540" y="430" width="180" height="55" class="data-box" rx="3"/>
        <text x="630" y="453" class="text service-text" text-anchor="middle">Meilisearch</text>
        <text x="630" y="473" class="text port-text" text-anchor="middle">Full-text Search</text>

        <rect x="760" y="430" width="180" height="55" class="data-box" rx="3"/>
        <text x="850" y="453" class="text service-text" text-anchor="middle">NATS JetStream</text>
        <text x="850" y="473" class="text port-text" text-anchor="middle">Message Queue</text>

        <rect x="980" y="430" width="180" height="55" class="data-box" rx="3"/>
        <text x="1070" y="453" class="text service-text" text-anchor="middle">S3 Storage</text>
        <text x="1070" y="473" class="text port-text" text-anchor="middle">Files & Media</text>

        <rect x="1200" y="430" width="180" height="55" class="data-box" rx="3"/>
        <text x="1290" y="453" class="text service-text" text-anchor="middle">ClickHouse</text>
        <text x="1290" y="473" class="text port-text" text-anchor="middle">Analytics Database</text>
    </g>

    <!-- External Services -->
    <g id="external-services">
        <rect x="50" y="580" width="1300" height="100" class="layer-box" rx="5"/>
        <text x="700" y="605" class="text title" text-anchor="middle">External Services</text>

        <rect x="450" y="615" width="200" height="50" class="external-box" rx="3"/>
        <text x="550" y="635" class="text service-text" text-anchor="middle">OpenAI API</text>
        <text x="550" y="653" class="text port-text" text-anchor="middle">AI Service Provider</text>

        <rect x="750" y="615" width="200" height="50" class="external-box" rx="3"/>
        <text x="850" y="635" class="text service-text" text-anchor="middle">Apache Superset</text>
        <text x="850" y="653" class="text port-text" text-anchor="middle">BI Dashboard :8088</text>
    </g>

    <!-- Shared Infrastructure -->
    <g id="shared-infrastructure">
        <rect x="50" y="700" width="1300" height="100" class="layer-box" rx="5"/>
        <text x="700" y="725" class="text title" text-anchor="middle">Shared Infrastructure</text>

        <rect x="350" y="735" width="200" height="50" class="shared-box" rx="3"/>
        <text x="450" y="755" class="text service-text" text-anchor="middle">fechatter_core</text>
        <text x="450" y="773" class="text port-text" text-anchor="middle">Common Types & Utils</text>

        <rect x="600" y="735" width="200" height="50" class="shared-box" rx="3"/>
        <text x="700" y="755" class="text service-text" text-anchor="middle">fechatter_protos</text>
        <text x="700" y="773" class="text port-text" text-anchor="middle">Protocol Buffers</text>

        <rect x="850" y="735" width="200" height="50" class="shared-box" rx="3"/>
        <text x="950" y="755" class="text service-text" text-anchor="middle">ai_sdk</text>
        <text x="950" y="773" class="text port-text" text-anchor="middle">AI Integrations</text>
    </g>

    <!-- Layer flow indicators -->
    <g id="flow-indicators">
        <text x="700" y="130" class="text layer-label" text-anchor="middle">↓ User Requests</text>
        <text x="700" y="230" class="text layer-label" text-anchor="middle">↓ Load Balancing & Routing</text>
        <text x="700" y="370" class="text layer-label" text-anchor="middle">↓ Business Logic Processing</text>
        <text x="700" y="570" class="text layer-label" text-anchor="middle">↓ Data Persistence & Messaging</text>
        <text x="700" y="690" class="text layer-label" text-anchor="middle">↓ External Integrations</text>
        <text x="700" y="820" class="text layer-label" text-anchor="middle">↑ Shared Libraries & Types</text>
    </g>
</svg>